<?xml version="1.0" encoding="UTF-8"?><svg id="_イヤー_2" xmlns="http://www.w3.org/2000/svg" viewBox="0 0 741.31 437.22"><defs><style>.cls-1,.cls-2{fill:#1a2337;}.cls-2{font-family:DINCondensed-Bold, 'DIN Condensed';font-size:32.95px;letter-spacing:.7em;}</style></defs><g id="_イヤー_1-2"><g><g><g><path class="cls-1" d="M71.77,270.26l.08,8.02h-1.09c0-.68-.08-1.19-.22-1.51-.14-.32-.34-.53-.61-.62-.26-.1-.62-.14-1.08-.14l-10.03,.1,13.06,5.9v.72l-12.93,6.26,9.52-.1c.5,0,.89-.03,1.16-.07,.27-.04,.49-.13,.68-.28s.32-.38,.41-.69,.13-.75,.12-1.31h1.09l.06,5.91h-1.09c0-.56-.06-.99-.16-1.3-.1-.31-.24-.53-.43-.67-.19-.14-.42-.22-.68-.25-.26-.03-.65-.04-1.15-.03l-9.06,.09c-.68,0-1.16,.05-1.46,.12-.3,.07-.52,.27-.67,.59-.15,.32-.22,.86-.21,1.61h-1.09l-.06-5.84,11.23-5.43-11.34-5.2-.06-5.72h1.09c.01,.97,.16,1.6,.45,1.89s.78,.42,1.46,.42l10.05-.1c.43,0,.78-.05,1.05-.15,.27-.1,.47-.32,.61-.66s.21-.86,.2-1.54h1.09Z"/><path class="cls-1" d="M69.09,252.6c.6,0,1.11,.11,1.53,.35,.42,.24,.74,.56,.94,.97,.2,.41,.31,.88,.31,1.39,0,.66-.14,1.21-.45,1.66-.31,.44-.68,.71-1.11,.8,1.07,1.3,1.61,2.62,1.62,3.95,0,.85-.19,1.55-.6,2.09-.41,.55-.95,.82-1.62,.83-.56,0-1.07-.13-1.52-.42s-.86-.71-1.22-1.27-.68-1.23-.96-2c-.28-.78-.57-1.74-.89-2.9h-.67c-.56,.01-1,.15-1.31,.42s-.47,.75-.46,1.46c0,.61,.14,1.04,.39,1.31,.25,.27,.64,.44,1.15,.52,.36,.06,.66,.17,.89,.34,.23,.17,.35,.52,.36,1.05,0,.33-.09,.62-.27,.88s-.46,.38-.83,.39c-.73,0-1.37-.38-1.92-1.17-.55-.79-.84-2-.85-3.65-.02-1.73,.26-2.92,.84-3.58,.58-.66,1.35-.99,2.33-1l3.73-.04c.47,0,.82-.02,1.04-.05s.39-.09,.5-.2c.11-.11,.17-.27,.17-.5,0-.2-.11-.38-.32-.53-.21-.15-.47-.22-.77-.22v-.87Zm.14,5.41l-2.93,.03c.49,1.49,.96,2.43,1.42,2.83,.46,.4,.9,.6,1.33,.59,.36,0,.65-.12,.87-.34s.32-.53,.32-.94c0-.43-.1-.81-.28-1.14-.18-.33-.43-.68-.73-1.04Z"/><path class="cls-1" d="M71.39,234.47l.06,5.85h-1.09c0-.68-.15-1.03-.42-1.02-.19,0-.39,.09-.6,.27l-2.81,2.18,.86,1.23,1.47-.02c.47,0,.82-.06,1.03-.15s.35-.23,.4-.4c.05-.17,.08-.45,.07-.82h1.09l.06,6.1h-1.09c0-.45-.05-.81-.15-1.05-.09-.24-.26-.41-.49-.5-.24-.09-.6-.14-1.1-.13l-10.05,.1c-.39,0-.67,.06-.84,.17s-.29,.27-.34,.49c-.05,.22-.08,.58-.1,1.06h-1.09l-1.09-4.73,10.86-.11-2.3-3.29c-.17-.22-.28-.36-.35-.42-.06-.06-.14-.09-.24-.09-.21,0-.32,.19-.31,.56v.66h-1.08l-.05-4.99h1.08c.09,.81,.47,1.69,1.14,2.65l.86,1.19,4.24-3.21c.42-.34,.73-.62,.94-.84,.21-.23,.31-.47,.3-.74h1.09Z"/><path class="cls-1" d="M56.62,224.19c.47,0,.88,.16,1.21,.49,.34,.33,.51,.73,.51,1.2s-.16,.87-.5,1.21c-.34,.35-.74,.52-1.19,.53s-.88-.16-1.22-.49-.52-.74-.52-1.21,.16-.89,.48-1.22c.33-.33,.73-.5,1.22-.51Zm14.65-1.49l.07,6.4h-1.09v-.33c0-.45-.07-.79-.2-.99-.13-.21-.31-.33-.53-.38-.23-.04-.56-.06-1-.06l-3.5,.04c-.49,0-.83,.04-1.04,.1-.2,.06-.35,.22-.44,.46-.09,.25-.14,.66-.14,1.25h-1.09l-1.07-4.81,7.24-.08c.66,0,1.11-.09,1.35-.26,.24-.17,.36-.61,.35-1.33h1.09Z"/><path class="cls-1" d="M71.07,203.94l.06,6.11h-1.09c0-.45-.07-.78-.19-.98-.12-.2-.3-.32-.54-.37-.24-.05-.63-.06-1.17-.06l-3.34,.03c-.67,0-1.2,.11-1.58,.31-.39,.2-.58,.6-.57,1.21,0,.83,.33,1.44,.97,1.84s1.37,.59,2.19,.59l2.64-.03c.62,0,1.05-.1,1.27-.29,.23-.18,.34-.57,.33-1.17h1.09l.07,6.22h-1.09c0-.5-.05-.88-.15-1.12-.09-.24-.26-.4-.49-.48-.23-.08-.6-.11-1.1-.11l-3.81,.04c-.55,0-.91,.11-1.08,.33s-.25,.69-.24,1.42h-1.09l-1.06-4.57c.46-.07,.88-.12,1.27-.12,.1,0,.19,0,.27,0,.07,0,.16,0,.25,0-.53-.49-.97-1-1.31-1.53-.34-.53-.51-1.2-.52-2,0-.68,.11-1.28,.35-1.83,.24-.54,.6-.97,1.1-1.28,.49-.31,1.09-.47,1.79-.48l3.97-.04c.66,0,1.11-.1,1.35-.28,.24-.18,.36-.64,.35-1.37h1.09Z"/><path class="cls-1" d="M66.04,187.43c1.07-.01,2,.24,2.8,.75,.8,.51,1.41,1.21,1.84,2.09s.65,1.85,.66,2.9c.01,.99-.17,1.93-.55,2.82-.38,.89-.95,1.62-1.73,2.19-.78,.57-1.74,.86-2.88,.87-1.71,.02-3.01-.55-3.9-1.7-.9-1.15-1.35-2.53-1.37-4.14-.01-1.2,.21-2.23,.68-3.1,.46-.87,1.09-1.53,1.88-1.98,.79-.45,1.65-.68,2.58-.69Zm-.04,3.26c-1.34,.01-2.34,.2-3.01,.56-.67,.36-1,1.05-.99,2.07,0,.65,.16,1.16,.46,1.52s.76,.61,1.38,.75c.62,.14,1.42,.2,2.4,.19,1.21-.01,2.19-.18,2.93-.51,.74-.33,1.11-1.04,1.1-2.12,0-.72-.22-1.26-.64-1.63-.42-.37-.93-.6-1.54-.7-.61-.1-1.3-.15-2.08-.14Z"/><path class="cls-1" d="M70.55,153.39l.09,8.88h-1.09v-.71c-.01-.61-.06-1.03-.13-1.26-.08-.22-.21-.33-.4-.33-.28,0-.86,.33-1.76,.99l-4.81,3.48,1.8,2.01,3.46-.04c.7,0,1.19-.17,1.46-.5,.28-.33,.41-.94,.4-1.84h1.09l.08,7.99h-1.09c0-.67-.08-1.18-.23-1.5-.15-.32-.35-.53-.61-.63s-.62-.14-1.08-.14l-10.05,.1c-.46,0-.81,.05-1.07,.15-.25,.09-.45,.31-.59,.64-.14,.34-.21,.85-.2,1.53h-1.09l-.08-7.99h1.09c.01,.97,.16,1.6,.44,1.88,.29,.28,.78,.42,1.47,.41l4.81-.05-4.4-4.93c-.3-.34-.56-.59-.78-.75-.22-.16-.46-.23-.73-.23-.57,0-.84,.55-.83,1.63h-1.09l-.08-7.29h1.09c.05,.55,.12,1.02,.21,1.37,.09,.36,.24,.7,.44,1.04s.46,.7,.79,1.1c.33,.4,.87,1.03,1.64,1.88l1.47,1.66,6.67-4.79c.71-.51,1.24-.93,1.59-1.26,.35-.33,.6-.67,.75-1.05s.24-.86,.26-1.47h1.09Z"/><path class="cls-1" d="M67.87,136.07c.6,0,1.11,.11,1.53,.35,.42,.24,.74,.56,.94,.98,.2,.41,.31,.88,.31,1.39,0,.66-.14,1.21-.45,1.66-.31,.44-.68,.71-1.11,.8,1.07,1.3,1.61,2.62,1.62,3.95,0,.85-.19,1.55-.6,2.09-.41,.55-.95,.82-1.62,.83-.56,0-1.07-.13-1.52-.42s-.86-.71-1.22-1.27-.68-1.23-.96-2c-.28-.78-.57-1.74-.89-2.9h-.67c-.56,.01-1,.15-1.31,.42-.32,.27-.47,.75-.46,1.46,0,.61,.14,1.04,.39,1.31,.25,.26,.64,.44,1.15,.52,.36,.06,.66,.17,.89,.34,.23,.17,.35,.52,.36,1.05,0,.33-.09,.62-.27,.88-.19,.25-.46,.38-.83,.39-.73,0-1.37-.38-1.92-1.17-.55-.79-.84-2-.85-3.65-.02-1.73,.26-2.92,.84-3.58,.58-.65,1.35-.99,2.33-1l3.73-.04c.47,0,.82-.02,1.04-.05,.22-.03,.39-.09,.5-.2,.11-.11,.17-.27,.17-.5,0-.2-.11-.38-.32-.53-.21-.15-.47-.22-.77-.22v-.87Zm.14,5.41l-2.93,.03c.49,1.49,.96,2.43,1.42,2.83,.46,.4,.9,.6,1.33,.59,.36,0,.65-.12,.87-.34,.22-.22,.32-.53,.32-.94,0-.43-.1-.81-.28-1.14-.18-.33-.43-.68-.73-1.04Z"/><path class="cls-1" d="M55.6,126.11c.47,0,.88,.16,1.21,.49,.34,.33,.51,.73,.51,1.2s-.16,.87-.5,1.21c-.34,.35-.74,.52-1.19,.53s-.88-.16-1.22-.49c-.34-.33-.52-.74-.52-1.21s.16-.89,.48-1.22,.73-.5,1.22-.51Zm14.65-1.49l.07,6.4h-1.09v-.33c0-.46-.07-.79-.2-.99-.13-.21-.31-.33-.53-.38-.23-.04-.56-.06-1-.06l-3.5,.04c-.49,0-.83,.04-1.04,.1-.2,.06-.35,.22-.44,.46-.09,.25-.14,.66-.14,1.25h-1.09l-1.07-4.81,7.24-.08c.66,0,1.11-.09,1.35-.26,.24-.17,.36-.61,.35-1.32h1.09Z"/><path class="cls-1" d="M68.01,111.91c.89,.42,1.53,.9,1.93,1.47,.39,.56,.59,1.22,.6,1.99,0,.93-.17,1.61-.54,2.06s-.79,.72-1.26,.83c-.47,.11-.99,.16-1.57,.17l-5.56,.06,.02,1.78h-1.08c0-.74-.16-1.38-.44-1.93-.29-.55-.67-.98-1.16-1.29-.48-.31-1-.51-1.55-.59v-.97l3.1-.03-.03-3.34h1.08l.03,3.33,5.63-.06c.68,0,1.18-.06,1.48-.15,.3-.09,.45-.32,.45-.67,0-.38-.15-.69-.45-.93-.3-.24-.67-.47-1.11-.7l.45-1.02Z"/><path class="cls-1" d="M65.08,95.2c1.07-.01,2,.24,2.8,.75,.8,.51,1.41,1.21,1.84,2.09,.43,.88,.65,1.85,.66,2.9,.01,.99-.17,1.93-.55,2.82-.38,.89-.95,1.62-1.73,2.19-.78,.57-1.74,.86-2.88,.87-1.71,.02-3.01-.55-3.9-1.71-.9-1.15-1.35-2.53-1.37-4.14-.01-1.2,.21-2.23,.68-3.1,.46-.87,1.09-1.53,1.88-1.98,.79-.45,1.65-.68,2.58-.69Zm-.04,3.26c-1.34,.01-2.34,.2-3.01,.56-.67,.36-1,1.05-.99,2.07,0,.65,.16,1.16,.46,1.52s.76,.61,1.38,.75c.62,.14,1.42,.2,2.4,.19,1.21-.01,2.19-.18,2.93-.51,.74-.33,1.11-1.04,1.1-2.12,0-.72-.22-1.26-.64-1.63-.42-.37-.93-.6-1.54-.7-.61-.1-1.3-.15-2.08-.14Z"/></g><path class="cls-1" d="M699.84,344.96c-10.66-6.68-31.71-26.01-63.13-57.99l-137.66-139.01,66.94-61.78c26.01-24.39,43.8-40.38,53.38-47.96,9.57-7.59,20.1-13.73,31.57-18.43,11.47-4.7,22.89-7.14,34.28-7.32V0h-138.47V12.47c26.01,.73,39.02,8.58,39.02,23.57,0,9.94-13.01,26.56-39.02,49.86l-112.19,101.08V91.59c0-30.53,.95-49.86,2.85-57.99,1.9-8.13,5.65-13.68,11.25-16.66,5.59-2.98,17.43-4.47,35.5-4.47h9.04V0h-164.85V12.47c20.59,0,33.69,1.45,39.29,4.33,1.52,.78,2.89,1.78,4.13,2.97l-125.16,284.27L111.92,0H0V12.47H10.03c18.61,0,30.66,1.63,36.18,4.88,5.51,3.25,9.12,9.12,10.84,17.61l1.56,39.56h13.75V37.94L218.95,367.45h12.74L377.2,37.94v233.86c0,30.71-.86,50.27-2.57,58.67-1.72,8.4-5.6,14.59-11.65,18.56-6.05,3.97-16.84,5.96-32.36,5.96h-13.03v12.47h175.59v-12.47h-11.75c-16.62,0-27.87-2.17-33.74-6.5-5.88-4.33-9.53-10.97-10.98-19.92-1.45-8.94-2.17-27.86-2.17-56.77v-66.93l26.29-23.03,103.78,104.6c26.19,26.2,39.3,43.09,39.3,50.67,0,5.06-2.53,9.3-7.59,12.74-5.06,3.43-17.88,5.15-38.48,5.15h-7.32v12.47h190.77v-12.47c-16.98,0-30.8-3.34-41.46-10.03Z"/><path class="cls-1" d="M75.06,313.25l-18.7,.54c-2.17,11.2-8.18,20.64-18.02,28.32-9.85,7.68-22.63,11.97-38.34,12.87v12.47H131.43v-12.47c-16.98-1.08-30.17-5.64-39.56-13.68-9.39-8.04-15-17.38-16.8-28.05Z"/></g><text class="cls-2" transform="translate(0 426.94)"><tspan x="0" y="0">DESIGNER</tspan></text></g></g></svg>