<?xml version="1.0" standalone="no"?>
<!DOCTYPE svg PUBLIC "-//W3C//DTD SVG 20010904//EN"
 "http://www.w3.org/TR/2001/REC-SVG-20010904/DTD/svg10.dtd">
<svg version="1.0" xmlns="http://www.w3.org/2000/svg"
 width="192.000000pt" height="192.000000pt" viewBox="0 0 192.000000 192.000000"
 preserveAspectRatio="xMidYMid meet">
<metadata>
Created by potrace 1.14, written by Peter Selinger 2001-2017
</metadata>
<g transform="translate(0.000000,192.000000) scale(0.100000,-0.100000)"
fill="#000000" stroke="none">
<path d="M2 1476 c2 -14 14 -19 57 -21 69 -4 84 -19 89 -95 4 -50 7 -60 23
-60 13 0 19 9 21 36 3 31 29 -23 188 -379 123 -278 190 -417 202 -420 13 -4
47 64 179 362 89 201 171 387 182 413 11 26 22 46 26 44 12 -8 5 -708 -7 -738
-12 -28 -59 -48 -114 -48 -18 0 -28 -5 -28 -15 0 -18 -23 -16 210 -17 261 0
250 0 250 17 0 10 -10 15 -27 15 -16 0 -44 5 -64 10 -54 15 -61 42 -61 225 l0
157 33 28 34 28 144 -147 c184 -187 221 -230 221 -252 0 -24 -29 -39 -88 -46
-54 -6 -60 -9 -44 -25 7 -7 82 -11 239 -10 125 0 234 1 241 1 13 1 17 30 5 32
-46 5 -74 14 -104 34 -29 19 -291 275 -469 460 l-45 46 25 21 c14 11 72 64
130 118 179 166 213 190 291 204 42 7 50 36 10 37 -25 0 -153 0 -278 -1 -78 0
-87 -22 -18 -39 53 -13 70 -41 50 -81 -14 -27 -82 -94 -240 -234 -55 -49 -108
-98 -117 -109 -22 -23 -20 -41 -19 189 0 168 8 220 33 229 17 6 67 13 96 14
14 1 22 7 22 19 0 18 -3 18 -397 12 -25 0 -33 -5 -33 -17 0 -14 9 -18 45 -19
25 0 50 -5 55 -10 8 -8 -298 -724 -310 -724 -7 0 -4 -5 -203 445 -77 176 -142
322 -143 323 -1 2 -68 5 -149 5 -137 2 -146 1 -143 -17z"/>
<path d="M157 1236 c-6 -15 1 -26 15 -26 11 0 10 27 -1 34 -5 3 -11 0 -14 -8z"/>
<path d="M150 1188 c0 -11 28 -10 35 1 3 6 -4 9 -15 8 -11 -1 -20 -5 -20 -9z"/>
<path d="M145 1160 c-2 -3 5 -7 16 -7 10 -1 19 2 19 6 0 9 -29 10 -35 1z"/>
<path d="M167 1133 c-11 -11 -8 -23 6 -23 8 0 14 7 14 15 0 16 -9 19 -20 8z"/>
<path d="M140 1068 c0 -13 8 -18 25 -18 14 0 25 5 25 11 0 5 -6 7 -12 3 -10
-6 -10 -4 0 8 11 14 9 16 -13 14 -17 -1 -25 -7 -25 -18z"/>
<path d="M166 994 c-8 -20 -4 -25 11 -16 7 4 9 13 4 21 -6 10 -10 9 -15 -5z"/>
<path d="M160 945 c0 -8 8 -15 18 -15 13 0 14 2 3 9 -11 7 -11 9 0 14 10 4 9
6 -3 6 -10 1 -18 -6 -18 -14z"/>
<path d="M153 903 c9 -2 23 -2 30 0 6 3 -1 5 -18 5 -16 0 -22 -2 -12 -5z"/>
<path d="M180 879 c0 -5 -3 -8 -7 -6 -5 3 -14 -1 -21 -9 -11 -12 -8 -13 13
-12 17 2 25 8 25 20 0 10 -2 18 -5 18 -3 0 -5 -5 -5 -11z"/>
<path d="M171 831 c-7 -5 -12 -14 -10 -20 3 -6 9 -7 18 -2 7 5 12 14 10 20 -3
6 -9 7 -18 2z"/>
<path d="M140 780 c0 -5 6 -11 13 -14 10 -5 10 -7 0 -12 -7 -3 -13 -10 -13
-15 0 -6 8 -6 19 1 14 7 21 6 24 -3 2 -6 4 2 4 19 0 26 -4 32 -24 32 -12 0
-23 -4 -23 -8z"/>
<path d="M129 647 c-17 -34 -59 -64 -100 -70 -22 -4 -42 -36 -22 -38 4 0 81
-1 171 -2 157 -2 163 -1 160 18 -2 13 -14 21 -35 26 -46 9 -79 33 -94 69 -19
42 -58 41 -80 -3z"/>
<path d="M4 438 c-4 -7 -3 -8 4 -4 8 5 12 -1 12 -16 0 -18 -2 -20 -10 -8 -5 8
-10 11 -10 5 0 -5 4 -17 10 -25 9 -15 9 -16 24 34 6 18 -21 29 -30 14z"/>
<path d="M107 443 c-9 -9 -9 -51 1 -56 4 -3 7 10 7 29 0 19 0 34 -1 34 0 0 -4
-3 -7 -7z"/>
<path d="M195 439 c-4 -6 -2 -16 4 -22 15 -15 14 -30 -1 -21 -7 4 -8 3 -4 -5
4 -6 12 -9 17 -6 13 9 11 35 -3 35 -10 0 -9 3 1 9 8 5 9 11 3 15 -6 3 -14 1
-17 -5z"/>
<path d="M367 443 c-13 -13 -7 -53 8 -53 8 0 15 8 15 18 0 14 -2 15 -10 2 -8
-12 -10 -10 -10 8 0 13 4 20 10 17 6 -3 10 -1 10 4 0 12 -13 14 -23 4z"/>
<path d="M459 445 c-3 -6 -2 -23 2 -40 3 -16 7 -23 8 -15 1 13 2 13 11 0 7
-11 9 -4 8 25 0 29 -2 33 -6 15 l-5 -25 -6 25 c-4 14 -9 20 -12 15z"/>
<path d="M558 438 c-3 -7 -1 -24 3 -38 6 -22 7 -20 8 13 1 38 -3 47 -11 25z"/>
<path d="M651 422 c-1 -30 1 -32 14 -18 8 8 15 21 15 28 0 10 -2 10 -9 -1 -7
-11 -10 -10 -14 5 -3 11 -5 6 -6 -14z"/>
<path d="M286 422 c-2 -4 -1 -14 4 -22 7 -11 9 -9 7 8 -1 24 -3 26 -11 14z"/>
</g>
</svg>
